<?xml version="1.0" standalone="no"?>
<!DOCTYPE svg PUBLIC "-//W3C//DTD SVG 20010904//EN"
 "http://www.w3.org/TR/2001/REC-SVG-20010904/DTD/svg10.dtd">
<svg version="1.0" xmlns="http://www.w3.org/2000/svg"
 width="241.000000pt" height="111.000000pt" viewBox="0 0 241.000000 111.000000"
 preserveAspectRatio="xMidYMid meet">

<g transform="translate(0.000000,111.000000) scale(0.100000,-0.100000)"
fill="#000000" stroke="none">
<path d="M458 353 c12 -2 30 -2 40 0 9 3 -1 5 -23 4 -22 0 -30 -2 -17 -4z"/>
<path d="M1427 324 c-6 -35 3 -104 14 -104 5 0 9 29 9 65 0 65 -13 88 -23 39z"/>
<path d="M1990 339 c0 -5 -5 -7 -11 -3 -7 4 -10 1 -7 -6 7 -22 24 -22 25 0 1
11 0 20 -3 20 -2 0 -4 -5 -4 -11z"/>
<path d="M461 321 c-9 -6 -10 -11 -2 -15 6 -4 11 -2 11 4 0 6 5 8 12 4 7 -4 8
-3 4 4 -8 14 -7 14 -25 3z"/>
<path d="M1936 308 c-9 -12 -16 -30 -16 -40 0 -22 27 -48 48 -47 11 0 12 2 5
6 -18 6 -16 33 2 53 14 15 13 19 -4 34 -18 16 -20 16 -35 -6z"/>
<path d="M467 253 c3 -7 6 -13 8 -13 2 0 5 6 8 13 3 8 -1 14 -8 14 -7 0 -11
-6 -8 -14z"/>
<path d="M510 170 c0 -5 5 -10 11 -10 5 0 7 5 4 10 -3 6 -8 10 -11 10 -2 0 -4
-4 -4 -10z"/>
<path d="M541 164 c0 -11 3 -14 6 -6 3 7 2 16 -1 19 -3 4 -6 -2 -5 -13z"/>
<path d="M1950 170 c0 -5 5 -10 11 -10 5 0 7 5 4 10 -3 6 -8 10 -11 10 -2 0
-4 -4 -4 -10z"/>
</g>
</svg>
